<?xml version="1.0" encoding="UTF-8"?>
<!-- Uploaded to: SVG Repo, www.svgrepo.com, Generator: SVG Repo Mixer Tools -->
<svg width="800px" height="800px" viewBox="0 0 256 256" version="1.1" xmlns="http://www.w3.org/2000/svg" xmlns:xlink="http://www.w3.org/1999/xlink" preserveAspectRatio="xMidYMid">
    <g>
        <path d="M190.4,128.5c1.4-4.9,1-9.7-1.2-12.6c-2.4-2.9-6-4.9-10.3-5.4L70.1,108.6c-0.5,0-1-0.5-1.5-0.5c-0.5-0.5-0.5-1,0-1.5c0.5-1,1-1.5,2-1.5l93,0.9c10.3-0.5,22-9.2,26-19.5l5-13.6c0-0.5,0.5-1,0-1.5c-5.4-25-28.4-43.7-55.1-43.7c-24.5,0-45.7,15.6-53.2,38c-4.9-3.4-10.8-5.4-17.6-4.9c-11.7,1-21.1,11.2-22.5,23.5c-0.5,2.9,0,5.8,0.5,8.8c-19.1,0.5-34.7,16.6-34.7,36.7c0,2,0,3.4,0.5,5.4c0,1,1,1.5,1.5,1.5h157.9c1,0,2-0.5,2-1.5L190.4,128.5z" fill="#F4811F"/>
        <path d="M216.4,80h-2.4c-0.5,0-1,0.5-1.5,1l-3.4,11.7c-1.5,4.9-1,9.7,1.5,12.6c2.4,2.9,6,4.9,10.3,5.4l18,1c0.5,0,1,0.5,1.5,0.5c0.5,0.5,0.5,1,0,1.5c-0.5,1-1,1.5-2,1.5l-18.6,1c-10.3,0.5-21.1,8.8-25,18.6l-1,4.4c-0.5,0.5,0,1.5,1,1.5h64.4c1,0,1.5-0.5,1.5-1.5c1-3.9,2-8.3,2-12.6C264,103.4,243,80,216.4,80" fill="#FAAD3F"/>
        <path d="M212.9,48.5L208,46.5c-23.5,52.5-115.5,20.1-121,36.2c-1,10.7,50.6,2,87.4,3.9c11,0.5,16.6,8.8,11.7,22.5h9.3c10.8-33.3,45.2-16.1,46.7-27.4C239.8,72.4,202.1,80,212.9,48.5z" fill="#FFFFFF"/>
    </g>
</svg>