<?xml version="1.0" encoding="UTF-8"?>
<svg width="32" height="32" viewBox="0 0 32 32" fill="none" xmlns="http://www.w3.org/2000/svg">
  <path fill-rule="evenodd" clip-rule="evenodd" d="M16 2C8.268 2 2 8.268 2 16c0 6.188 4.012 11.412 9.572 13.244.7.132.956-.304.956-.676 0-.332-.012-1.216-.02-2.384-3.892.844-4.716-1.876-4.716-1.876-.636-1.616-1.552-2.044-1.552-2.044-1.268-.868.096-.852.096-.852 1.404.1 2.144 1.44 2.144 1.44 1.248 2.14 3.276 1.52 4.072 1.164.128-.904.488-1.52.888-1.868-3.108-.352-6.376-1.552-6.376-6.908 0-1.524.544-2.772 1.44-3.748-.144-.352-.624-1.776.136-3.704 0 0 1.172-.376 3.84 1.432a13.376 13.376 0 013.492-.468c1.184.004 2.376.16 3.492.468 2.664-1.808 3.836-1.432 3.836-1.432.764 1.928.284 3.352.14 3.704.896.976 1.436 2.224 1.436 3.748 0 5.368-3.272 6.552-6.392 6.896.504.432.952 1.288.952 2.596 0 1.872-.016 3.384-.016 3.844 0 .376.252.812.964.676C25.992 27.408 30 22.188 30 16c0-7.732-6.268-14-14-14z" fill="#24292E"/>
</svg> 